<svg width="50" height="40" viewBox="0 0 50 40" fill="none" xmlns="http://www.w3.org/2000/svg">
<path d="M36.1111 14.4444C36.1111 6.77082 28.0295 0.555542 18.0556 0.555542C8.0816 0.555542 0 6.77082 0 14.4444C0 17.4219 1.22396 20.1649 3.29861 22.4305C2.13542 25.0521 0.217014 27.1354 0.190972 27.1614C0 27.3611 -0.0520833 27.6562 0.0607639 27.9167C0.173611 28.1771 0.416667 28.3333 0.694444 28.3333C3.87153 28.3333 6.50174 27.2656 8.3941 26.1632C11.1892 27.526 14.4965 28.3333 18.0556 28.3333C28.0295 28.3333 36.1111 22.118 36.1111 14.4444ZM46.7014 33.5416C48.776 31.2847 50 28.533 50 25.5555C50 19.7482 45.3559 14.7743 38.776 12.6996C38.8542 13.2726 38.8889 13.8542 38.8889 14.4444C38.8889 23.6371 29.5399 31.1111 18.0556 31.1111C17.1181 31.1111 16.2066 31.0416 15.3038 30.9462C18.0382 35.9375 24.4618 39.4444 31.9444 39.4444C35.5035 39.4444 38.8108 38.6458 41.6059 37.2743C43.4983 38.3767 46.1285 39.4444 49.3056 39.4444C49.5833 39.4444 49.8351 39.2795 49.9392 39.0278C50.0521 38.776 50 38.4809 49.809 38.2726C49.783 38.2465 47.8646 36.1719 46.7014 33.5416Z" fill="#BF30E2"/>
</svg>
