<svg width="50" height="50" viewBox="0 0 50 50" fill="none" xmlns="http://www.w3.org/2000/svg">
<path d="M32.5 31.25H36.25C36.875 31.25 37.5 30.625 37.5 30V16.875C37.5 16.25 36.875 15.625 36.25 15.625H32.5C31.875 15.625 31.25 16.25 31.25 16.875V30C31.25 30.625 31.875 31.25 32.5 31.25ZM41.875 31.25H45.625C46.25 31.25 46.875 30.625 46.875 30V7.5C46.875 6.875 46.25 6.25 45.625 6.25H41.875C41.25 6.25 40.625 6.875 40.625 7.5V30C40.625 30.625 41.25 31.25 41.875 31.25ZM13.75 31.25H17.5C18.125 31.25 18.75 30.625 18.75 30V23.125C18.75 22.5 18.125 21.875 17.5 21.875H13.75C13.125 21.875 12.5 22.5 12.5 23.125V30C12.5 30.625 13.125 31.25 13.75 31.25ZM23.125 31.25H26.875C27.5 31.25 28.125 30.625 28.125 30V10.625C28.125 10 27.5 9.375 26.875 9.375H23.125C22.5 9.375 21.875 10 21.875 10.625V30C21.875 30.625 22.5 31.25 23.125 31.25ZM48.4375 37.5H6.25V7.8125C6.25 6.94922 5.55078 6.25 4.6875 6.25H1.5625C0.699219 6.25 0 6.94922 0 7.8125V40.625C0 42.3506 1.39941 43.75 3.125 43.75H48.4375C49.3008 43.75 50 43.0508 50 42.1875V39.0625C50 38.1992 49.3008 37.5 48.4375 37.5Z" fill="#BF30E2"/>
</svg>
