<svg width="30" height="30" viewBox="0 0 30 30" fill="none" xmlns="http://www.w3.org/2000/svg">
<path d="M23.4375 3.75H18.75C18.75 1.68164 17.0684 0 15 0C12.9316 0 11.25 1.68164 11.25 3.75H6.5625C5.00977 3.75 3.75 5.00977 3.75 6.5625V27.1875C3.75 28.7402 5.00977 30 6.5625 30H23.4375C24.9902 30 26.25 28.7402 26.25 27.1875V6.5625C26.25 5.00977 24.9902 3.75 23.4375 3.75ZM9.375 24.8438C8.5957 24.8438 7.96875 24.2168 7.96875 23.4375C7.96875 22.6582 8.5957 22.0312 9.375 22.0312C10.1543 22.0312 10.7812 22.6582 10.7812 23.4375C10.7812 24.2168 10.1543 24.8438 9.375 24.8438ZM9.375 19.2188C8.5957 19.2188 7.96875 18.5918 7.96875 17.8125C7.96875 17.0332 8.5957 16.4062 9.375 16.4062C10.1543 16.4062 10.7812 17.0332 10.7812 17.8125C10.7812 18.5918 10.1543 19.2188 9.375 19.2188ZM9.375 13.5938C8.5957 13.5938 7.96875 12.9668 7.96875 12.1875C7.96875 11.4082 8.5957 10.7812 9.375 10.7812C10.1543 10.7812 10.7812 11.4082 10.7812 12.1875C10.7812 12.9668 10.1543 13.5938 9.375 13.5938ZM15 2.34375C15.7793 2.34375 16.4062 2.9707 16.4062 3.75C16.4062 4.5293 15.7793 5.15625 15 5.15625C14.2207 5.15625 13.5938 4.5293 13.5938 3.75C13.5938 2.9707 14.2207 2.34375 15 2.34375ZM22.5 23.9062C22.5 24.1641 22.2891 24.375 22.0312 24.375H13.5938C13.3359 24.375 13.125 24.1641 13.125 23.9062V22.9688C13.125 22.7109 13.3359 22.5 13.5938 22.5H22.0312C22.2891 22.5 22.5 22.7109 22.5 22.9688V23.9062ZM22.5 18.2812C22.5 18.5391 22.2891 18.75 22.0312 18.75H13.5938C13.3359 18.75 13.125 18.5391 13.125 18.2812V17.3438C13.125 17.0859 13.3359 16.875 13.5938 16.875H22.0312C22.2891 16.875 22.5 17.0859 22.5 17.3438V18.2812ZM22.5 12.6562C22.5 12.9141 22.2891 13.125 22.0312 13.125H13.5938C13.3359 13.125 13.125 12.9141 13.125 12.6562V11.7188C13.125 11.4609 13.3359 11.25 13.5938 11.25H22.0312C22.2891 11.25 22.5 11.4609 22.5 11.7188V12.6562Z" fill="#D9D9D9"/>
</svg>
