<svg width="31" height="30" viewBox="0 0 31 30" fill="none" xmlns="http://www.w3.org/2000/svg">
<g clip-path="url(#clip0_62_1347)">
<path d="M15.1024 9.38854L5.4998 17.2974V25.8333C5.4998 26.0543 5.5876 26.2663 5.74388 26.4226C5.90016 26.5789 6.11212 26.6667 6.33314 26.6667L12.1696 26.6516C12.3899 26.6505 12.6008 26.5622 12.7562 26.406C12.9115 26.2499 12.9988 26.0385 12.9988 25.8182V20.8333C12.9988 20.6123 13.0866 20.4004 13.2428 20.2441C13.3991 20.0878 13.6111 20 13.8321 20H17.1654C17.3864 20 17.5984 20.0878 17.7547 20.2441C17.911 20.4004 17.9988 20.6123 17.9988 20.8333V25.8146C17.9984 25.9242 18.0197 26.0329 18.0614 26.1343C18.1032 26.2357 18.1645 26.3279 18.2419 26.4055C18.3193 26.4832 18.4113 26.5448 18.5126 26.5868C18.6139 26.6289 18.7224 26.6505 18.8321 26.6505L24.6665 26.6667C24.8875 26.6667 25.0994 26.5789 25.2557 26.4226C25.412 26.2663 25.4998 26.0543 25.4998 25.8333V17.2917L15.8993 9.38854C15.7864 9.29756 15.6458 9.24795 15.5008 9.24795C15.3559 9.24795 15.2153 9.29756 15.1024 9.38854ZM30.2706 14.7641L25.9165 11.175V3.96094C25.9165 3.79518 25.8506 3.63621 25.7334 3.519C25.6162 3.40179 25.4572 3.33594 25.2915 3.33594H22.3748C22.209 3.33594 22.0501 3.40179 21.9329 3.519C21.8157 3.63621 21.7498 3.79518 21.7498 3.96094V7.74271L17.0868 3.90625C16.6393 3.53801 16.0778 3.33667 15.4982 3.33667C14.9187 3.33667 14.3572 3.53801 13.9097 3.90625L0.725846 14.7641C0.662558 14.8164 0.610197 14.8806 0.571756 14.9532C0.533314 15.0257 0.509545 15.1052 0.501806 15.1869C0.494067 15.2686 0.50251 15.3511 0.526653 15.4296C0.550796 15.5081 0.590166 15.581 0.642512 15.6443L1.97064 17.2589C2.02284 17.3223 2.08705 17.3749 2.15959 17.4135C2.23214 17.4521 2.31159 17.4761 2.39339 17.484C2.4752 17.4919 2.55776 17.4835 2.63635 17.4595C2.71493 17.4354 2.788 17.3961 2.85137 17.3438L15.1024 7.25313C15.2153 7.16215 15.3559 7.11254 15.5008 7.11254C15.6458 7.11254 15.7864 7.16215 15.8993 7.25313L28.1508 17.3438C28.2141 17.3961 28.2871 17.4355 28.3655 17.4596C28.444 17.4838 28.5265 17.4922 28.6082 17.4845C28.69 17.4767 28.7694 17.4529 28.8419 17.4145C28.9145 17.3761 28.9787 17.3237 29.0311 17.2604L30.3592 15.6458C30.4115 15.5822 30.4507 15.5089 30.4745 15.4301C30.4984 15.3512 30.5064 15.2685 30.4982 15.1865C30.49 15.1046 30.4656 15.0251 30.4266 14.9526C30.3875 14.8801 30.3345 14.816 30.2706 14.7641Z" fill="#BF30E2"/>
</g>
<defs>
<clipPath id="clip0_62_1347">
<rect width="30" height="30" fill="white" transform="translate(0.5)"/>
</clipPath>
</defs>
</svg>
