<svg width="26" height="26" viewBox="0 0 26 26" fill="none" xmlns="http://www.w3.org/2000/svg">
<path d="M14.7013 22.6029L13.5739 23.7303C13.0966 24.2076 12.3247 24.2076 11.8524 23.7303L1.98057 13.8635C1.50322 13.3861 1.50322 12.6143 1.98057 12.142L11.8524 2.27012C12.3298 1.79277 13.1017 1.79277 13.5739 2.27012L14.7013 3.39746C15.1837 3.87988 15.1735 4.66699 14.681 5.13926L8.56182 10.9689H23.1563C23.8317 10.9689 24.3751 11.5123 24.3751 12.1877V13.8127C24.3751 14.4881 23.8317 15.0314 23.1563 15.0314H8.56182L14.681 20.8611C15.1786 21.3334 15.1888 22.1205 14.7013 22.6029Z" fill="#BF30E2"/>
</svg>
