<svg width="550" height="647" viewBox="0 0 550 647" fill="none" xmlns="http://www.w3.org/2000/svg">
<path d="M13.468 109.96H20.776V111.864H13.468V109.96ZM13.468 115H20.832V116.876H13.468V115ZM19.88 105.872H22.204V120.852H19.88V105.872ZM2.548 107.776H14.112V119.032H2.548V107.776ZM11.816 109.652H4.816V117.184H11.816V109.652ZM13.888 121.58C19.096 121.58 22.316 123.344 22.316 126.368C22.316 129.392 19.096 131.128 13.888 131.128C8.652 131.128 5.432 129.392 5.432 126.368C5.432 123.344 8.652 121.58 13.888 121.58ZM13.888 123.428C10.08 123.428 7.756 124.52 7.756 126.368C7.756 128.216 10.08 129.308 13.888 129.308C17.696 129.308 20.02 128.216 20.02 126.368C20.02 124.52 17.696 123.428 13.888 123.428ZM33.8498 109.484H35.7258V113.6C35.7258 118.948 32.5058 124.324 28.4738 126.312L27.1298 124.464C30.7978 122.728 33.8498 117.968 33.8498 113.6V109.484ZM34.2978 109.484H36.1738V113.6C36.1738 117.884 39.2258 122.252 42.9498 123.848L41.6338 125.696C37.5458 123.792 34.2978 118.864 34.2978 113.6V109.484ZM27.9698 108.448H42.1098V110.408H27.9698V108.448ZM45.5258 105.872H47.8498V131.184H45.5258V105.872ZM72.1516 105.872H74.3916V131.184H72.1516V105.872ZM67.8676 116.008H72.7396V117.94H67.8676V116.008ZM66.4116 106.432H68.5956V129.896H66.4116V106.432ZM53.8116 123.008H55.4636C59.1596 123.008 61.6796 122.868 64.6196 122.252L64.8436 124.184C61.8196 124.828 59.2716 124.94 55.4636 124.94H53.8116V123.008ZM53.8116 108.952H63.2196V110.856H56.1076V123.876H53.8116V108.952ZM78.7294 108.532H93.6814V110.436H78.7294V108.532ZM86.2054 111.724C89.7894 111.724 92.2534 113.516 92.2534 116.316C92.2534 119.088 89.7894 120.852 86.2054 120.852C82.5654 120.852 80.1294 119.088 80.1294 116.316C80.1294 113.516 82.5654 111.724 86.2054 111.724ZM86.2054 113.544C83.8814 113.544 82.3414 114.608 82.3414 116.316C82.3414 117.968 83.8814 119.06 86.2054 119.06C88.4734 119.06 90.0414 117.968 90.0414 116.316C90.0414 114.608 88.4734 113.544 86.2054 113.544ZM95.9774 105.872H98.3014V121.692H95.9774V105.872ZM97.6574 112.844H102.053V114.776H97.6574V112.844ZM81.8654 123.064H98.3014V131.184H95.9774V124.968H81.8654V123.064ZM85.0294 105.732H87.3534V109.596H85.0294V105.732ZM106.783 108.392H123.079V110.324H106.783V108.392ZM104.431 125.724H127.307V127.656H104.431V125.724ZM110.031 117.352H112.327V126.424H110.031V117.352ZM122.323 108.392H124.619V111.192C124.619 114.412 124.619 117.716 123.751 122.448L121.427 122.168C122.323 117.688 122.323 114.328 122.323 111.192V108.392ZM116.275 117.352H118.571V126.424H116.275V117.352ZM138.393 107.692C142.341 107.692 145.169 110.128 145.169 113.656C145.169 117.212 142.341 119.648 138.393 119.648C134.445 119.648 131.589 117.212 131.589 113.656C131.589 110.128 134.445 107.692 138.393 107.692ZM138.393 109.708C135.761 109.708 133.857 111.304 133.857 113.656C133.857 116.008 135.761 117.632 138.393 117.632C140.997 117.632 142.901 116.008 142.901 113.656C142.901 111.304 140.997 109.708 138.393 109.708ZM148.473 105.844H150.797V131.212H148.473V105.844ZM130.637 125.668L130.301 123.736C134.921 123.736 141.305 123.708 146.821 122.84L147.017 124.548C141.333 125.64 135.145 125.668 130.637 125.668ZM19.796 188.872H22.12V201.976H19.796V188.872ZM5.768 203.264H22.148V209.34H8.092V212.812H5.824V207.604H19.852V205.084H5.768V203.264ZM5.824 212.056H22.988V213.904H5.824V212.056ZM7.98 189.6H9.912V191.532C9.912 196.208 7 200.184 2.716 201.752L1.568 199.904C5.376 198.56 7.98 195.2 7.98 191.532V189.6ZM8.4 189.6H10.304V191.532C10.304 195.032 12.964 198.196 16.716 199.428L15.568 201.248C11.312 199.792 8.4 196.068 8.4 191.532V189.6ZM33.8218 191.056H35.7258V195.592C35.7258 201.416 32.5898 206.82 28.4458 208.92L27.0178 207.016C30.7698 205.224 33.8218 200.38 33.8218 195.592V191.056ZM34.2138 191.056H36.1178V195.592C36.1178 200.212 39.1418 204.86 42.8938 206.596L41.4938 208.444C37.3778 206.428 34.2138 201.22 34.2138 195.592V191.056ZM45.5258 188.844H47.8498V214.212H45.5258V188.844ZM70.2196 188.872H72.5436V207.38H70.2196V188.872ZM71.8156 196.544H76.2956V198.476H71.8156V196.544ZM63.3036 190.832H65.7676C65.7676 197.384 61.1756 202.172 53.9236 204.496L52.9156 202.592C59.2996 200.632 63.3036 196.712 63.3036 191.84V190.832ZM53.9516 190.832H64.4796V192.736H53.9516V190.832ZM56.7516 211.72H73.6636V213.624H56.7516V211.72ZM56.7516 205.504H59.0756V212.476H56.7516V205.504ZM105.991 190.496H108.427C108.427 196.88 103.947 201.444 96.6665 203.488L95.7145 201.668C102.127 199.848 105.991 196.18 105.991 191.476V190.496ZM97.0305 190.496H107.559V192.372H97.0305V190.496ZM113.943 188.872H116.267V203.32H113.943V188.872ZM108.454 195.368H114.391V197.3H108.454V195.368ZM99.9425 204.384H116.267V213.848H99.9425V204.384ZM113.999 206.26H102.239V211.944H113.999V206.26ZM126.512 190.384H128.36V193.772C128.36 197.58 126.204 201.584 122.48 203.292L121.22 201.472C124.524 199.988 126.512 196.656 126.512 193.772V190.384ZM126.876 190.384H128.724V193.772C128.724 196.656 130.6 199.54 133.848 200.856L132.616 202.648C128.948 201.108 126.876 197.552 126.876 193.772V190.384ZM140.316 188.9H142.528V204.188H140.316V188.9ZM136.228 195.452H141.016V197.384H136.228V195.452ZM134.884 189.32H137.096V204.048H134.884V189.32ZM125.56 205.56H142.528V214.184H140.232V207.464H125.56V205.56ZM153.726 190.804C157.394 190.804 160.026 194.248 160.026 199.624C160.026 205.028 157.394 208.472 153.726 208.472C150.03 208.472 147.426 205.028 147.426 199.624C147.426 194.248 150.03 190.804 153.726 190.804ZM153.726 192.904C151.29 192.904 149.638 195.536 149.638 199.624C149.638 203.74 151.29 206.428 153.726 206.428C156.162 206.428 157.814 203.74 157.814 199.624C157.814 195.536 156.162 192.904 153.726 192.904ZM165.514 188.844H167.81V214.212H165.514V188.844ZM159.27 198.504H166.522V200.408H159.27V198.504ZM179.12 201.64H181.444V207.688H179.12V201.64ZM180.268 190.496C184.16 190.496 186.96 192.932 186.96 196.46C186.96 199.988 184.16 202.424 180.268 202.424C176.376 202.424 173.576 199.988 173.576 196.46C173.576 192.932 176.376 190.496 180.268 190.496ZM180.268 192.484C177.692 192.484 175.844 194.108 175.844 196.46C175.844 198.812 177.692 200.436 180.268 200.436C182.844 200.436 184.692 198.812 184.692 196.46C184.692 194.108 182.844 192.484 180.268 192.484ZM189.844 188.872H192.168V214.184H189.844V188.872ZM191.496 199.288H196.172V201.248H191.496V199.288ZM172.764 208.724L172.428 206.792C176.992 206.764 183.096 206.736 188.248 206.036L188.444 207.772C183.096 208.668 177.188 208.724 172.764 208.724ZM228.695 195.844H235.079V197.748H228.695V195.844ZM233.763 188.9H236.087V207.436H233.763V188.9ZM219.931 211.72H236.787V213.624H219.931V211.72ZM219.931 205.812H222.255V212.7H219.931V205.812ZM221.723 192.036H223.627V194.08C223.627 198.672 220.771 202.648 216.543 204.216L215.339 202.368C219.119 201.024 221.723 197.664 221.723 194.08V192.036ZM222.171 192.036H224.047V194.052C224.047 197.328 226.511 200.52 230.179 201.808L229.003 203.628C224.887 202.144 222.171 198.336 222.171 194.052V192.036ZM216.067 190.944H229.591V192.82H216.067V190.944ZM246.669 197.44H248.965V202.228H246.669V197.44ZM255.965 197.44H258.261V202.228H255.965V197.44ZM241.013 201.388H263.889V203.264H241.013V201.388ZM252.437 205.168C257.869 205.168 261.117 206.764 261.117 209.648C261.117 212.532 257.869 214.156 252.437 214.156C247.005 214.156 243.757 212.532 243.757 209.648C243.757 206.764 247.005 205.168 252.437 205.168ZM252.437 206.96C248.489 206.96 246.109 207.94 246.109 209.648C246.109 211.384 248.489 212.336 252.437 212.336C256.413 212.336 258.765 211.384 258.765 209.648C258.765 207.94 256.413 206.96 252.437 206.96ZM252.465 189.32C257.953 189.32 261.369 191.084 261.369 194.052C261.369 196.992 257.953 198.728 252.465 198.728C246.949 198.728 243.561 196.992 243.561 194.052C243.561 191.084 246.949 189.32 252.465 189.32ZM252.465 191.14C248.433 191.14 245.941 192.204 245.941 194.052C245.941 195.872 248.433 196.936 252.465 196.936C256.497 196.936 258.989 195.872 258.989 194.052C258.989 192.204 256.497 191.14 252.465 191.14ZM288.852 193.436H290.616V194.136C290.616 198.14 288.572 201.976 284.904 203.572L283.784 201.808C286.976 200.436 288.852 197.272 288.852 194.136V193.436ZM289.3 193.436H291.036V194.136C291.036 197.048 292.996 199.988 296.16 201.248L295.068 202.984C291.372 201.528 289.3 197.944 289.3 194.136V193.436ZM284.26 192.232H295.544V194.08H284.26V192.232ZM288.852 189.264H291.036V193.072H288.852V189.264ZM302.684 188.9H304.896V206.008H302.684V188.9ZM298.708 195.312H303.496V197.244H298.708V195.312ZM297.308 189.32H299.492V203.824H297.308V189.32ZM295.348 204.972H297.308V205.56C297.308 210.012 292.744 213.204 287.648 214.1L286.78 212.28C291.232 211.58 295.348 208.836 295.348 205.56V204.972ZM295.656 204.972H297.644V205.56C297.644 208.836 301.76 211.58 306.212 212.28L305.344 214.1C300.248 213.204 295.656 210.012 295.656 205.56V204.972ZM312.369 189.516H314.665V192.316H326.901V189.516H329.225V198.868H312.369V189.516ZM314.665 194.136V196.992H326.901V194.136H314.665ZM309.317 201.696H332.193V203.572H309.317V201.696ZM319.621 197.972H321.917V202.2H319.621V197.972ZM319.593 205.252H321.581V205.924C321.581 210.348 317.129 213.26 311.949 214.1L311.109 212.28C315.701 211.636 319.593 209.172 319.593 205.924V205.252ZM319.957 205.252H321.945V205.924C321.945 209.172 325.809 211.636 330.429 212.28L329.561 214.1C324.381 213.26 319.957 210.348 319.957 205.924V205.252ZM335.075 202.172H357.951V204.076H335.075V202.172ZM338.043 211.72H355.431V213.624H338.043V211.72ZM338.043 206.288H340.367V212.308H338.043V206.288ZM346.527 189.712C351.931 189.712 355.431 191.616 355.431 194.78C355.431 197.916 351.931 199.82 346.527 199.82C341.095 199.82 337.623 197.916 337.623 194.78C337.623 191.616 341.095 189.712 346.527 189.712ZM346.527 191.616C342.551 191.616 340.003 192.792 340.003 194.78C340.003 196.768 342.551 197.944 346.527 197.944C350.503 197.944 353.051 196.768 353.051 194.78C353.051 192.792 350.503 191.616 346.527 191.616ZM366.153 205.98V201.584C367.758 201.509 369.018 201.164 369.933 200.548C370.848 199.913 371.305 198.961 371.305 197.692V197.3C371.305 196.255 370.988 195.471 370.353 194.948C369.737 194.425 368.888 194.164 367.805 194.164C366.685 194.164 365.789 194.472 365.117 195.088C364.445 195.704 363.978 196.488 363.717 197.44L361.617 196.656C361.804 196.04 362.065 195.461 362.401 194.92C362.737 194.36 363.157 193.875 363.661 193.464C364.184 193.053 364.79 192.727 365.481 192.484C366.19 192.241 366.993 192.12 367.889 192.12C368.785 192.12 369.588 192.251 370.297 192.512C371.025 192.755 371.641 193.109 372.145 193.576C372.649 194.024 373.041 194.575 373.321 195.228C373.601 195.881 373.741 196.609 373.741 197.412C373.741 198.289 373.582 199.064 373.265 199.736C372.948 200.389 372.537 200.949 372.033 201.416C371.529 201.883 370.95 202.265 370.297 202.564C369.662 202.844 369.018 203.04 368.365 203.152V205.98H366.153ZM367.357 212.252C366.592 212.252 366.05 212.093 365.733 211.776C365.434 211.459 365.285 211.057 365.285 210.572V210.068C365.285 209.583 365.434 209.181 365.733 208.864C366.05 208.547 366.592 208.388 367.357 208.388C368.122 208.388 368.654 208.547 368.953 208.864C369.27 209.181 369.429 209.583 369.429 210.068V210.572C369.429 211.057 369.27 211.459 368.953 211.776C368.654 212.093 368.122 212.252 367.357 212.252Z" fill="black"/>
<path d="M12.72 264.48C9.06667 264.48 6.36 263.227 4.6 260.72C2.86667 258.213 2 254.653 2 250.04C2 245.453 2.86667 241.907 4.6 239.4C6.36 236.867 9.06667 235.6 12.72 235.6C14.1067 235.6 15.32 235.787 16.36 236.16C17.4267 236.533 18.3467 237.053 19.12 237.72C19.8933 238.36 20.5333 239.147 21.04 240.08C21.5467 240.987 21.9467 241.987 22.24 243.08L17.44 244.44C17.2533 243.8 17.04 243.2 16.8 242.64C16.56 242.08 16.2533 241.6 15.88 241.2C15.5333 240.773 15.0933 240.453 14.56 240.24C14.0267 240 13.3867 239.88 12.64 239.88C10.8267 239.88 9.52 240.573 8.72 241.96C7.94667 243.347 7.56 245.24 7.56 247.64V252.44C7.56 254.84 7.94667 256.733 8.72 258.12C9.52 259.507 10.8267 260.2 12.64 260.2C13.3867 260.2 14.0267 260.093 14.56 259.88C15.0933 259.64 15.5333 259.32 15.88 258.92C16.2533 258.493 16.56 258 16.8 257.44C17.04 256.88 17.2533 256.28 17.44 255.64L22.24 257C21.9467 258.093 21.5467 259.107 21.04 260.04C20.5333 260.947 19.8933 261.733 19.12 262.4C18.3467 263.04 17.4267 263.547 16.36 263.92C15.32 264.293 14.1067 264.48 12.72 264.48ZM26.9844 234.4H32.1044V247H32.3044C32.7577 245.88 33.451 244.92 34.3844 244.12C35.3444 243.293 36.6644 242.88 38.3444 242.88C40.371 242.88 42.011 243.56 43.2644 244.92C44.5444 246.253 45.1844 248.173 45.1844 250.68V264H40.0644V251.4C40.0644 248.413 38.771 246.92 36.1844 246.92C35.651 246.92 35.1444 246.987 34.6644 247.12C34.1844 247.253 33.7444 247.467 33.3444 247.76C32.971 248.027 32.6644 248.36 32.4244 248.76C32.211 249.16 32.1044 249.64 32.1044 250.2V264H26.9844V234.4ZM67.5688 264C66.3154 264 65.3421 263.693 64.6488 263.08C63.9821 262.44 63.5821 261.56 63.4488 260.44H63.2488C62.8754 261.72 62.1421 262.72 61.0488 263.44C59.9554 264.133 58.6088 264.48 57.0088 264.48C54.9288 264.48 53.2754 263.933 52.0488 262.84C50.8221 261.747 50.2088 260.227 50.2088 258.28C50.2088 254.12 53.2621 252.04 59.3688 252.04H63.0088V250.68C63.0088 249.373 62.6888 248.387 62.0488 247.72C61.4088 247.053 60.3688 246.72 58.9288 246.72C57.6221 246.72 56.5688 246.973 55.7688 247.48C54.9688 247.987 54.2888 248.64 53.7288 249.44L50.8088 246.96C51.4488 245.813 52.4754 244.853 53.8888 244.08C55.3288 243.28 57.1821 242.88 59.4488 242.88C62.1688 242.88 64.2888 243.52 65.8088 244.8C67.3554 246.053 68.1288 247.933 68.1288 250.44V260.16H70.5687V264H67.5688ZM58.7288 260.96C59.9554 260.96 60.9688 260.68 61.7688 260.12C62.5954 259.533 63.0088 258.747 63.0088 257.76V255H59.4888C56.6888 255 55.2888 255.88 55.2888 257.64V258.44C55.2888 259.267 55.5954 259.893 56.2088 260.32C56.8221 260.747 57.6621 260.96 58.7288 260.96ZM85.3531 264C83.3798 264 81.9265 263.48 80.9931 262.44C80.0598 261.4 79.5931 260.053 79.5931 258.4V247.4H73.5931V243.36H77.6731C78.4998 243.36 79.0865 243.2 79.4331 242.88C79.7798 242.533 79.9531 241.933 79.9531 241.08V236.08H84.7131V243.36H93.1131V247.4H84.7131V259.96H93.1131V264H85.3531ZM103.658 236.08V253.48C103.658 254.52 103.684 255.453 103.738 256.28C103.818 257.107 103.991 257.813 104.258 258.4C104.551 258.96 104.978 259.4 105.538 259.72C106.124 260.04 106.924 260.2 107.938 260.2C108.951 260.2 109.738 260.04 110.298 259.72C110.884 259.4 111.311 258.96 111.578 258.4C111.871 257.813 112.044 257.107 112.098 256.28C112.178 255.453 112.218 254.52 112.218 253.48V236.08H117.458V252.68C117.458 254.653 117.338 256.373 117.098 257.84C116.858 259.307 116.391 260.533 115.698 261.52C115.004 262.507 114.031 263.253 112.778 263.76C111.551 264.24 109.938 264.48 107.938 264.48C105.938 264.48 104.311 264.24 103.058 263.76C101.831 263.253 100.871 262.507 100.178 261.52C99.4842 260.533 99.0175 259.307 98.7775 257.84C98.5375 256.373 98.4175 254.653 98.4175 252.68V236.08H103.658ZM122.922 264V243.36H128.042V247H128.242C128.695 245.88 129.389 244.92 130.322 244.12C131.282 243.293 132.602 242.88 134.282 242.88C136.309 242.88 137.949 243.56 139.202 244.92C140.482 246.253 141.122 248.173 141.122 250.68V264H136.002V251.4C136.002 248.413 134.709 246.92 132.122 246.92C131.589 246.92 131.082 246.987 130.602 247.12C130.122 247.253 129.682 247.467 129.282 247.76C128.909 248.027 128.602 248.36 128.362 248.76C128.149 249.16 128.042 249.64 128.042 250.2V264H122.922ZM157.186 240.16C155.986 240.16 155.133 239.907 154.626 239.4C154.146 238.893 153.906 238.28 153.906 237.56V236.6C153.906 235.88 154.146 235.267 154.626 234.76C155.133 234.253 155.986 234 157.186 234C158.386 234 159.226 234.253 159.706 234.76C160.213 235.267 160.466 235.88 160.466 236.6V237.56C160.466 238.28 160.213 238.893 159.706 239.4C159.226 239.907 158.386 240.16 157.186 240.16ZM147.826 259.96H154.626V247.4H147.826V243.36H159.746V259.96H166.066V264H147.826V259.96ZM176.811 264L169.411 243.36H174.771L177.531 252.12L179.851 259.72H180.131L182.451 252.12L185.211 243.36H190.371L182.971 264H176.811Z" fill="#BF30E2"/>
<rect y="355" width="60" height="60" rx="30" fill="white"/>
<path d="M38.8889 380.143C38.8889 373.434 32.4236 368 24.4444 368C16.4653 368 10 373.434 10 380.143C10 382.746 10.9792 385.144 12.6389 387.125C11.7083 389.417 10.1736 391.238 10.1528 391.261C10 391.436 9.95833 391.694 10.0486 391.921C10.1389 392.149 10.3333 392.286 10.5556 392.286C13.0972 392.286 15.2014 391.352 16.7153 390.388C18.9514 391.58 21.5972 392.286 24.4444 392.286C32.4236 392.286 38.8889 386.852 38.8889 380.143ZM47.3611 396.839C49.0208 394.866 50 392.46 50 389.857C50 384.78 46.2847 380.431 41.0208 378.617C41.0833 379.118 41.1111 379.627 41.1111 380.143C41.1111 388.18 33.6319 394.714 24.4444 394.714C23.6944 394.714 22.9653 394.654 22.2431 394.57C24.4306 398.934 29.5694 402 35.5556 402C38.4028 402 41.0486 401.302 43.2847 400.103C44.7986 401.067 46.9028 402 49.4444 402C49.6667 402 49.8681 401.856 49.9514 401.636C50.0417 401.416 50 401.158 49.8472 400.975C49.8264 400.953 48.2917 399.139 47.3611 396.839Z" fill="#BF30E2"/>
<path opacity="0.8" d="M84.68 368.1H85.96V369.04C85.96 372.62 84.46 376.24 81.82 377.82L80.82 376.56C83.28 375.12 84.68 371.98 84.68 369.04V368.1ZM84.98 368.1H86.26V369.04C86.26 371.9 87.72 374.86 90.14 376.18L89.2 377.42C86.54 375.94 84.98 372.52 84.98 369.04V368.1ZM81.28 366.84H89.66V368.2H81.28V366.84ZM84.68 364.12H86.28V367.86H84.68V364.12ZM94.82 363.48H96.4V381.56H94.82V363.48ZM91.96 370.76H95.44V372.16H91.96V370.76ZM90.88 363.86H92.44V380.66H90.88V363.86ZM100.438 372.06H101.898C105.798 372.06 107.938 371.98 110.478 371.56L110.658 372.88C108.038 373.34 105.838 373.4 101.898 373.4H100.438V372.06ZM100.438 364.8H109.038V366.14H102.078V372.74H100.438V364.8ZM101.538 368.38H108.538V369.7H101.538V368.38ZM112.538 363.5H114.218V374.68H112.538V363.5ZM108.238 374.94C111.998 374.94 114.298 376.14 114.298 378.22C114.298 380.32 111.998 381.52 108.238 381.52C104.458 381.52 102.158 380.32 102.158 378.22C102.158 376.14 104.458 374.94 108.238 374.94ZM108.238 376.26C105.478 376.26 103.818 376.98 103.818 378.22C103.818 379.5 105.478 380.22 108.238 380.22C110.978 380.22 112.638 379.5 112.638 378.22C112.638 376.98 110.978 376.26 108.238 376.26ZM126.057 374.82C129.737 374.82 131.997 376.06 131.997 378.18C131.997 380.3 129.737 381.54 126.057 381.54C122.377 381.54 120.117 380.3 120.117 378.18C120.117 376.06 122.377 374.82 126.057 374.82ZM126.057 376.16C123.377 376.16 121.737 376.9 121.737 378.18C121.737 379.48 123.377 380.22 126.057 380.22C128.737 380.22 130.377 379.48 130.377 378.18C130.377 376.9 128.737 376.16 126.057 376.16ZM130.157 363.48H131.817V374.34H130.157V363.48ZM131.357 368.02H134.497V369.42H131.357V368.02ZM118.537 364.62H120.177V367.32H125.277V364.62H126.897V372.96H118.537V364.62ZM120.177 368.64V371.62H125.277V368.64H120.177ZM144.355 363.78C148.335 363.78 150.715 364.9 150.715 366.92C150.715 368.94 148.335 370.06 144.355 370.06C140.355 370.06 137.995 368.94 137.995 366.92C137.995 364.9 140.355 363.78 144.355 363.78ZM144.355 365.04C141.395 365.04 139.695 365.72 139.695 366.92C139.695 368.12 141.395 368.8 144.355 368.8C147.295 368.8 148.995 368.12 148.995 366.92C148.995 365.72 147.295 365.04 144.355 365.04ZM136.175 371.26H152.515V372.6H136.175V371.26ZM138.155 374.14H150.435V378.22H139.835V380.42H138.195V377.02H148.795V375.42H138.155V374.14ZM138.195 380.06H150.975V381.36H138.195V380.06ZM167.326 365.1H175.626V373.48H167.326V365.1ZM174.006 366.44H168.946V372.14H174.006V366.44ZM178.946 363.46H180.606V376.72H178.946V363.46ZM180.086 368.98H183.286V370.36H180.086V368.98ZM169.346 379.8H181.426V381.16H169.346V379.8ZM169.346 375.46H171.006V380.38H169.346V375.46ZM184.984 371.02H201.324V372.38H184.984V371.02ZM187.144 368.22H199.384V369.56H187.144V368.22ZM187.144 364.06H199.184V365.42H188.784V369.3H187.144V364.06ZM186.944 373.94H199.224V378.2H188.624V380.48H186.984V376.96H197.584V375.24H186.944V373.94ZM186.984 380.04H199.764V381.36H186.984V380.04ZM208.203 364.86C210.823 364.86 212.703 367.32 212.703 371.16C212.703 375.02 210.823 377.48 208.203 377.48C205.563 377.48 203.703 375.02 203.703 371.16C203.703 367.32 205.563 364.86 208.203 364.86ZM208.203 366.36C206.463 366.36 205.283 368.24 205.283 371.16C205.283 374.1 206.463 376.02 208.203 376.02C209.943 376.02 211.123 374.1 211.123 371.16C211.123 368.24 209.943 366.36 208.203 366.36ZM216.623 363.46H218.263V381.58H216.623V363.46ZM212.163 370.36H217.343V371.72H212.163V370.36ZM241.913 367.5H247.373V368.88H241.913V367.5ZM241.913 373.22H247.373V374.6H241.913V373.22ZM238.593 364.86C241.213 364.86 243.093 367.32 243.093 371.16C243.093 375.02 241.213 377.48 238.593 377.48C235.953 377.48 234.093 375.02 234.093 371.16C234.093 367.32 235.953 364.86 238.593 364.86ZM238.593 366.36C236.853 366.36 235.653 368.24 235.653 371.16C235.653 374.1 236.853 376.02 238.593 376.02C240.333 376.02 241.533 374.1 241.533 371.16C241.533 368.24 240.333 366.36 238.593 366.36ZM247.013 363.46H248.653V381.58H247.013V363.46ZM265.372 363.46H267.032V381.58H265.372V363.46ZM261.932 370.42H265.772V371.78H261.932V370.42ZM252.832 375.86H254.212C257.412 375.86 259.672 375.76 262.332 375.28L262.492 376.66C259.772 377.14 257.472 377.26 254.212 377.26H252.832V375.86ZM252.792 365.16H260.872V371.5H254.472V376.28H252.832V370.14H259.232V366.52H252.792V365.16ZM286.983 365.04H288.343V368.28C288.343 372.28 286.183 376.18 283.323 377.7L282.303 376.38C284.923 375.06 286.983 371.58 286.983 368.28V365.04ZM287.283 365.04H288.623V368.28C288.623 371.46 290.643 374.76 293.203 376.04L292.183 377.36C289.383 375.86 287.283 372.16 287.283 368.28V365.04ZM294.783 363.48H296.463V381.56H294.783V363.48ZM296.063 370.8H299.423V372.2H296.063V370.8ZM313.321 363.5H314.981V374.26H313.321V363.5ZM314.481 368.1H317.661V369.5H314.481V368.1ZM303.581 375.16H314.981V381.32H303.581V375.16ZM313.361 376.48H305.221V379.98H313.361V376.48ZM301.741 371.96H303.161C306.441 371.96 308.781 371.88 311.601 371.38L311.741 372.74C308.881 373.22 306.501 373.34 303.161 373.34H301.741V371.96ZM301.701 364.46H309.841V369.42H303.361V372.74H301.741V368.14H308.201V365.82H301.701V364.46ZM319.359 371.02H335.699V372.38H319.359V371.02ZM321.519 368.22H333.759V369.56H321.519V368.22ZM321.519 364.06H333.559V365.42H323.159V369.3H321.519V364.06ZM321.319 373.94H333.599V378.2H322.999V380.48H321.359V376.96H331.959V375.24H321.319V373.94ZM321.359 380.04H334.139V381.36H321.359V380.04ZM338.558 365.46H346.738V366.8H338.558V365.46ZM341.378 370.62H343.018V376.74H341.378V370.62ZM346.058 365.46H347.678V366.42C347.678 367.9 347.678 370.26 347.158 373.62L345.518 373.46C346.058 370.2 346.058 367.88 346.058 366.42V365.46ZM349.958 363.48H351.598V381.56H349.958V363.48ZM351.158 371.04H354.498V372.44H351.158V371.04ZM337.758 377.62L337.558 376.22C340.838 376.22 345.198 376.16 348.858 375.7L348.938 376.92C345.198 377.52 340.958 377.6 337.758 377.62ZM380.508 363.48H382.168V374.36H380.508V363.48ZM381.708 368.28H384.848V369.66H381.708V368.28ZM370.808 375.38H382.168V381.32H370.808V375.38ZM380.548 376.72H372.428V379.98H380.548V376.72ZM368.188 365.38H378.868V366.74H368.188V365.38ZM373.528 367.62C376.108 367.62 377.848 368.9 377.848 370.86C377.848 372.82 376.108 374.06 373.528 374.06C370.928 374.06 369.188 372.82 369.188 370.86C369.188 368.9 370.928 367.62 373.528 367.62ZM373.528 368.9C371.868 368.9 370.768 369.66 370.768 370.86C370.768 372.04 371.868 372.8 373.528 372.8C375.148 372.8 376.268 372.04 376.268 370.86C376.268 369.66 375.148 368.9 373.528 368.9ZM372.688 363.32H374.348V366.08H372.688V363.32ZM389.567 365.64H390.967C390.967 369.52 390.447 373.78 387.867 377.3L386.567 376.54C389.047 373.32 389.567 369.54 389.567 365.76V365.64ZM386.947 365.64H390.387V367.02H386.947V365.64ZM393.547 365.64H394.967C394.967 369.46 394.727 374.54 391.887 378.46L390.567 377.7C393.327 374.1 393.547 369.4 393.547 365.78V365.64ZM391.567 365.64H394.427V367.02H391.567V365.64ZM400.367 363.48H401.967V381.56H400.367V363.48ZM394.127 370.58H397.367V371.94H394.127V370.58ZM397.027 363.94H398.587V380.64H397.027V363.94ZM86.46 406.24C84.7533 406.24 83.48 405.62 82.64 404.38C81.8133 403.14 81.4 401.353 81.4 399.02C81.4 396.687 81.8133 394.9 82.64 393.66C83.48 392.42 84.7533 391.8 86.46 391.8C87.1 391.8 87.6533 391.887 88.12 392.06C88.5867 392.233 88.9867 392.467 89.32 392.76C89.6533 393.053 89.9333 393.387 90.16 393.76C90.3867 394.12 90.5867 394.487 90.76 394.86L89.32 395.52C89.2 395.213 89.06 394.927 88.9 394.66C88.74 394.38 88.5467 394.14 88.32 393.94C88.1067 393.727 87.8467 393.56 87.54 393.44C87.2467 393.32 86.8867 393.26 86.46 393.26C85.3533 393.26 84.5267 393.68 83.98 394.52C83.4467 395.36 83.18 396.48 83.18 397.88V400.16C83.18 401.56 83.4467 402.68 83.98 403.52C84.5267 404.36 85.3533 404.78 86.46 404.78C86.8867 404.78 87.2467 404.72 87.54 404.6C87.8467 404.48 88.1067 404.32 88.32 404.12C88.5467 403.907 88.74 403.667 88.9 403.4C89.06 403.12 89.2 402.827 89.32 402.52L90.76 403.18C90.5867 403.567 90.3867 403.94 90.16 404.3C89.9333 404.66 89.6533 404.987 89.32 405.28C88.9867 405.573 88.5867 405.807 88.12 405.98C87.6533 406.153 87.1 406.24 86.46 406.24ZM93.9522 391.2H95.5522V397.36H95.6322C95.7389 397.107 95.8722 396.867 96.0322 396.64C96.1922 396.4 96.3855 396.193 96.6122 396.02C96.8522 395.847 97.1322 395.707 97.4522 395.6C97.7722 395.493 98.1455 395.44 98.5722 395.44C99.6522 395.44 100.519 395.787 101.172 396.48C101.826 397.16 102.152 398.127 102.152 399.38V406H100.552V399.66C100.552 398.713 100.346 398.013 99.9322 397.56C99.5189 397.093 98.9122 396.86 98.1122 396.86C97.7922 396.86 97.4789 396.9 97.1722 396.98C96.8655 397.06 96.5922 397.18 96.3522 397.34C96.1122 397.5 95.9189 397.707 95.7722 397.96C95.6255 398.213 95.5522 398.507 95.5522 398.84V406H93.9522V391.2ZM113.884 406C113.258 406 112.811 405.84 112.544 405.52C112.278 405.2 112.111 404.8 112.044 404.32H111.944C111.718 404.92 111.351 405.393 110.844 405.74C110.351 406.073 109.684 406.24 108.844 406.24C107.764 406.24 106.904 405.96 106.264 405.4C105.624 404.84 105.304 404.073 105.304 403.1C105.304 402.14 105.651 401.4 106.344 400.88C107.051 400.36 108.184 400.1 109.744 400.1H111.944V399.08C111.944 398.32 111.731 397.753 111.304 397.38C110.878 396.993 110.271 396.8 109.484 396.8C108.791 396.8 108.224 396.94 107.784 397.22C107.344 397.487 106.991 397.853 106.724 398.32L105.644 397.52C105.778 397.253 105.958 396.993 106.184 396.74C106.411 396.487 106.691 396.267 107.024 396.08C107.358 395.88 107.738 395.727 108.164 395.62C108.591 395.5 109.064 395.44 109.584 395.44C110.798 395.44 111.758 395.747 112.464 396.36C113.184 396.973 113.544 397.827 113.544 398.92V404.6H114.984V406H113.884ZM109.124 404.9C109.538 404.9 109.911 404.853 110.244 404.76C110.591 404.653 110.891 404.52 111.144 404.36C111.398 404.187 111.591 403.987 111.724 403.76C111.871 403.52 111.944 403.267 111.944 403V401.3H109.744C108.784 401.3 108.084 401.433 107.644 401.7C107.204 401.967 106.984 402.353 106.984 402.86V403.28C106.984 403.813 107.171 404.22 107.544 404.5C107.931 404.767 108.458 404.9 109.124 404.9ZM122.477 406C121.69 406 121.11 405.78 120.737 405.34C120.377 404.9 120.197 404.333 120.197 403.64V397.04H116.757V395.68H119.317C119.663 395.68 119.903 395.613 120.037 395.48C120.183 395.333 120.257 395.087 120.257 394.74V392.04H121.797V395.68H126.497V397.04H121.797V404.64H126.497V406H122.477ZM136.849 404.14H136.749C136.629 404.407 136.489 404.667 136.329 404.92C136.169 405.173 135.962 405.4 135.709 405.6C135.469 405.787 135.175 405.94 134.829 406.06C134.482 406.18 134.069 406.24 133.589 406.24C132.069 406.24 130.935 405.627 130.189 404.4C129.455 403.173 129.089 401.413 129.089 399.12C129.089 396.72 129.495 394.9 130.309 393.66C131.122 392.42 132.375 391.8 134.069 391.8C134.722 391.8 135.289 391.887 135.769 392.06C136.249 392.233 136.655 392.467 136.989 392.76C137.335 393.053 137.622 393.387 137.849 393.76C138.075 394.12 138.262 394.487 138.409 394.86L136.969 395.52C136.849 395.213 136.709 394.927 136.549 394.66C136.402 394.38 136.215 394.14 135.989 393.94C135.775 393.727 135.515 393.56 135.209 393.44C134.902 393.32 134.542 393.26 134.129 393.26C133.009 393.26 132.182 393.68 131.649 394.52C131.129 395.36 130.869 396.48 130.869 397.88V400.04C130.869 400.747 130.922 401.393 131.029 401.98C131.135 402.553 131.309 403.053 131.549 403.48C131.802 403.907 132.122 404.24 132.509 404.48C132.909 404.707 133.395 404.82 133.969 404.82C134.875 404.82 135.582 404.547 136.089 404C136.595 403.453 136.849 402.747 136.849 401.88V400.44H133.909V399.1H138.409V406H136.849V404.14ZM141.761 406V392.04H146.841C148.134 392.04 149.121 392.393 149.801 393.1C150.481 393.807 150.821 394.793 150.821 396.06C150.821 397.327 150.481 398.313 149.801 399.02C149.121 399.727 148.134 400.08 146.841 400.08H143.441V406H141.761ZM143.441 398.62H146.801C147.508 398.62 148.054 398.447 148.441 398.1C148.841 397.74 149.041 397.233 149.041 396.58V395.54C149.041 394.887 148.841 394.387 148.441 394.04C148.054 393.68 147.508 393.5 146.801 393.5H143.441V398.62ZM158.793 393.5V406H157.113V393.5H152.453V392.04H163.453V393.5H158.793ZM169.505 398.6H171.165V402.92H169.505V398.6ZM170.325 390.64C173.105 390.64 175.105 392.38 175.105 394.9C175.105 397.42 173.105 399.16 170.325 399.16C167.545 399.16 165.545 397.42 165.545 394.9C165.545 392.38 167.545 390.64 170.325 390.64ZM170.325 392.06C168.485 392.06 167.165 393.22 167.165 394.9C167.165 396.58 168.485 397.74 170.325 397.74C172.165 397.74 173.485 396.58 173.485 394.9C173.485 393.22 172.165 392.06 170.325 392.06ZM177.165 389.48H178.825V407.56H177.165V389.48ZM178.345 396.92H181.685V398.32H178.345V396.92ZM164.965 403.66L164.725 402.28C167.985 402.26 172.345 402.24 176.025 401.74L176.165 402.98C172.345 403.62 168.125 403.66 164.965 403.66ZM209.076 389.48H210.676V407.56H209.076V389.48ZM206.016 396.72H209.496V398.1H206.016V396.72ZM204.976 389.88H206.536V406.64H204.976V389.88ZM195.976 401.72H197.156C199.796 401.72 201.596 401.62 203.696 401.18L203.856 402.56C201.696 403.02 199.876 403.1 197.156 403.1H195.976V401.72ZM195.976 391.68H202.696V393.04H197.616V402.34H195.976V391.68ZM218.414 400.26H220.074V403.2H218.414V400.26ZM226.014 389.48H227.674V407.56H226.014V389.48ZM227.134 397.16H230.474V398.56H227.134V397.16ZM213.754 404.12L213.514 402.74C216.754 402.74 221.174 402.7 224.914 402.16L225.054 403.4C221.154 404.1 216.914 404.12 213.754 404.12ZM213.814 391.66H224.634V393H213.814V391.66ZM219.234 394.06C221.754 394.06 223.494 395.38 223.494 397.4C223.494 399.44 221.754 400.74 219.234 400.74C216.714 400.74 214.994 399.44 214.994 397.4C214.994 395.38 216.714 394.06 219.234 394.06ZM219.234 395.34C217.614 395.34 216.554 396.16 216.554 397.4C216.554 398.64 217.614 399.46 219.234 399.46C220.854 399.46 221.934 398.64 221.934 397.4C221.934 396.16 220.854 395.34 219.234 395.34ZM218.414 389.5H220.074V392.56H218.414V389.5ZM244.493 389.42H246.153V399.4H244.493V389.42ZM245.453 393.76H248.833V395.16H245.453V393.76ZM234.673 400.32H246.153V404.36H236.353V406.56H234.713V403.16H244.533V401.58H234.673V400.32ZM234.713 406.08H246.813V407.36H234.713V406.08ZM232.173 391.1H242.853V392.4H232.173V391.1ZM237.513 393.2C240.113 393.2 241.833 394.34 241.833 396.18C241.833 398 240.113 399.12 237.513 399.12C234.873 399.12 233.173 398 233.173 396.18C233.173 394.34 234.873 393.2 237.513 393.2ZM237.513 394.42C235.833 394.42 234.753 395.1 234.753 396.18C234.753 397.24 235.833 397.92 237.513 397.92C239.173 397.92 240.253 397.24 240.253 396.18C240.253 395.1 239.173 394.42 237.513 394.42ZM236.673 389.28H238.333V392H236.673V389.28ZM269.823 390.12H271.283V391.12C271.283 394.58 267.763 397.06 264.003 397.7L263.343 396.36C266.643 395.86 269.823 393.7 269.823 391.12V390.12ZM270.123 390.12H271.563V391.12C271.563 393.64 274.783 395.86 278.043 396.36L277.383 397.7C273.663 397.06 270.123 394.54 270.123 391.12V390.12ZM269.823 400.68H271.463V407.56H269.823V400.68ZM262.523 399.66H278.863V401.04H262.523V399.66ZM297.414 400.6H298.694V401.58C298.694 403.94 297.214 406.32 294.614 407.32L293.774 406.08C296.054 405.26 297.414 403.32 297.414 401.58V400.6ZM297.774 400.6H299.014V401.58C299.014 403.4 300.094 405.34 302.254 406.22L301.554 407.48C298.954 406.46 297.774 403.98 297.774 401.58V400.6ZM304.094 400.6H305.334V401.58C305.334 403.7 304.134 406.38 301.554 407.48L300.854 406.22C302.994 405.24 304.094 403.14 304.094 401.58V400.6ZM304.434 400.6H305.714V401.58C305.714 403.44 307.054 405.3 309.354 406.08L308.514 407.32C305.874 406.36 304.434 404.08 304.434 401.58V400.6ZM306.054 389.5H307.734V399.82H306.054V389.5ZM298.034 390.54C300.774 390.54 302.734 392.26 302.734 394.76C302.734 397.26 300.774 398.96 298.034 398.96C295.294 398.96 293.314 397.26 293.314 394.76C293.314 392.26 295.294 390.54 298.034 390.54ZM298.034 391.92C296.234 391.92 294.934 393.08 294.934 394.76C294.934 396.44 296.234 397.58 298.034 397.58C299.834 397.58 301.134 396.44 301.134 394.76C301.134 393.08 299.834 391.92 298.034 391.92ZM316.133 390.86C318.753 390.86 320.633 393.32 320.633 397.16C320.633 401.02 318.753 403.48 316.133 403.48C313.493 403.48 311.632 401.02 311.632 397.16C311.632 393.32 313.493 390.86 316.133 390.86ZM316.133 392.36C314.393 392.36 313.213 394.24 313.213 397.16C313.213 400.1 314.393 402.02 316.133 402.02C317.873 402.02 319.053 400.1 319.053 397.16C319.053 394.24 317.873 392.36 316.133 392.36ZM324.553 389.46H326.193V407.58H324.553V389.46ZM320.093 396.36H325.273V397.72H320.093V396.36ZM333.711 398.78H335.351V404.2H333.711V398.78ZM340.391 398.78H342.051V404.2H340.391V398.78ZM329.711 403.88H346.091V405.26H329.711V403.88ZM337.871 390.62C341.691 390.62 344.431 392.44 344.431 395.28C344.431 398.1 341.691 399.92 337.871 399.92C334.031 399.92 331.291 398.1 331.291 395.28C331.291 392.44 334.031 390.62 337.871 390.62ZM337.871 391.94C334.971 391.94 332.891 393.26 332.891 395.28C332.891 397.28 334.971 398.6 337.871 398.6C340.771 398.6 342.831 397.28 342.831 395.28C342.831 393.26 340.771 391.94 337.871 391.94ZM353.109 406.18C352.563 406.18 352.176 406.067 351.949 405.84C351.736 405.613 351.629 405.327 351.629 404.98V404.62C351.629 404.273 351.736 403.987 351.949 403.76C352.176 403.533 352.563 403.42 353.109 403.42C353.656 403.42 354.036 403.533 354.249 403.76C354.476 403.987 354.589 404.273 354.589 404.62V404.98C354.589 405.327 354.476 405.613 354.249 405.84C354.036 406.067 353.656 406.18 353.109 406.18Z" fill="black"/>
<rect y="455" width="60" height="60" rx="30" fill="white"/>
<path d="M36 490H39C39.5 490 40 489.5 40 489V478.5C40 478 39.5 477.5 39 477.5H36C35.5 477.5 35 478 35 478.5V489C35 489.5 35.5 490 36 490ZM43.5 490H46.5C47 490 47.5 489.5 47.5 489V471C47.5 470.5 47 470 46.5 470H43.5C43 470 42.5 470.5 42.5 471V489C42.5 489.5 43 490 43.5 490ZM21 490H24C24.5 490 25 489.5 25 489V483.5C25 483 24.5 482.5 24 482.5H21C20.5 482.5 20 483 20 483.5V489C20 489.5 20.5 490 21 490ZM28.5 490H31.5C32 490 32.5 489.5 32.5 489V473.5C32.5 473 32 472.5 31.5 472.5H28.5C28 472.5 27.5 473 27.5 473.5V489C27.5 489.5 28 490 28.5 490ZM48.75 495H15V471.25C15 470.559 14.4406 470 13.75 470H11.25C10.5594 470 10 470.559 10 471.25V497.5C10 498.88 11.1195 500 12.5 500H48.75C49.4406 500 50 499.441 50 498.75V496.25C50 495.559 49.4406 495 48.75 495Z" fill="#BF30E2"/>
<path d="M93.22 463.46H94.9V481.56H93.22V463.46ZM94.44 470.8H97.78V472.18H94.44V470.8ZM88.6 465.42H90.22C90.22 470.56 87.86 475.2 82.02 478.14L81.1 476.86C86.1 474.32 88.6 470.46 88.6 465.68V465.42ZM81.94 465.42H89.46V466.78H81.94V465.42ZM103.838 465.42H105.198V466.88C105.198 470.2 103.198 472.98 100.158 474.08L99.3184 472.76C102.038 471.8 103.838 469.46 103.838 466.88V465.42ZM104.138 465.42H105.498V466.86C105.498 469.22 107.218 471.34 109.878 472.22L109.078 473.52C106.058 472.52 104.138 469.94 104.138 466.86V465.42ZM99.8184 464.82H109.478V466.18H99.8184V464.82ZM111.758 463.48H113.418V474.38H111.758V463.48ZM112.958 468.06H116.098V469.46H112.958V468.06ZM107.658 474.86C111.338 474.86 113.598 476.08 113.598 478.18C113.598 480.3 111.338 481.52 107.658 481.52C103.978 481.52 101.718 480.3 101.718 478.18C101.718 476.08 103.978 474.86 107.658 474.86ZM107.658 476.2C104.978 476.2 103.338 476.92 103.338 478.18C103.338 479.46 104.978 480.22 107.658 480.22C110.338 480.22 111.978 479.46 111.978 478.18C111.978 476.92 110.338 476.2 107.658 476.2ZM142.149 463.48H143.809V472.7H142.149V463.48ZM143.089 467.54H146.489V468.92H143.089V467.54ZM130.529 464.66H138.829V472.04H130.529V464.66ZM137.209 466H132.149V470.72H137.209V466ZM131.669 479.72H132.529C133.609 479.72 135.349 479.62 136.889 479.1L137.169 480.44C135.429 481 133.769 481.08 132.529 481.08H131.669V479.72ZM131.669 474.36H133.289V480.08H131.669V474.36ZM136.509 474.54H145.589V475.78H136.509V474.54ZM141.069 476.44C143.029 476.44 144.409 477.44 144.409 478.98C144.409 480.56 143.029 481.54 141.069 481.54C139.089 481.54 137.709 480.56 137.709 478.98C137.709 477.44 139.089 476.44 141.069 476.44ZM141.069 477.62C139.949 477.62 139.189 478.16 139.189 478.98C139.189 479.82 139.949 480.36 141.069 480.36C142.149 480.36 142.929 479.82 142.929 478.98C142.929 478.16 142.149 477.62 141.069 477.62ZM140.249 472.96H141.869V475.42H140.249V472.96ZM161.308 463.46H162.968V481.58H161.308V463.46ZM153.428 464.86C156.108 464.86 158.028 467.32 158.028 471.16C158.028 475.02 156.108 477.48 153.428 477.48C150.768 477.48 148.848 475.02 148.848 471.16C148.848 467.32 150.768 464.86 153.428 464.86ZM153.428 466.36C151.668 466.36 150.428 468.24 150.428 471.16C150.428 474.1 151.668 476.02 153.428 476.02C155.208 476.02 156.428 474.1 156.428 471.16C156.428 468.24 155.208 466.36 153.428 466.36ZM187.578 468.5H192.538V469.84H187.578V468.5ZM191.778 463.5H193.438V476.8H191.778V463.5ZM181.898 479.8H193.938V481.16H181.898V479.8ZM181.898 475.46H183.558V480.38H181.898V475.46ZM183.498 464.64C186.158 464.64 188.158 466.5 188.158 469.12C188.158 471.74 186.158 473.6 183.498 473.6C180.838 473.6 178.838 471.74 178.838 469.12C178.838 466.5 180.838 464.64 183.498 464.64ZM183.498 466.1C181.738 466.1 180.438 467.34 180.438 469.12C180.438 470.9 181.738 472.14 183.498 472.14C185.238 472.14 186.558 470.9 186.558 469.12C186.558 467.34 185.238 466.1 183.498 466.1ZM199.097 473.82H200.737V476.2H209.577V473.82H211.237V481.32H199.097V473.82ZM200.737 477.52V479.98H209.577V477.52H200.737ZM199.057 464.3H210.697V465.66H199.057V464.3ZM196.977 470.84H213.357V472.22H196.977V470.84ZM209.617 464.3H211.237V465.62C211.237 467.1 211.237 468.8 210.677 471.22L209.017 471.24C209.617 468.82 209.617 467.1 209.617 465.62V464.3ZM217.055 469.38H225.775V470.74H217.055V469.38ZM220.535 470.2H222.195V473.82H220.535V470.2ZM217.055 464.66H225.655V466.02H218.715V469.98H217.055V464.66ZM228.495 463.48H230.155V477H228.495V463.48ZM218.475 479.8H230.755V481.16H218.475V479.8ZM218.475 476.12H220.115V480.38H218.475V476.12ZM215.675 474.72L215.455 473.36C218.935 473.36 223.335 473.28 227.055 472.84L227.155 474.06C223.335 474.62 219.055 474.72 215.675 474.72ZM258.126 463.46H259.786V476.56H258.126V463.46ZM259.286 468.84H262.466V470.22H259.286V468.84ZM246.586 472H247.986C251.706 472 253.806 471.9 256.226 471.4L256.406 472.74C253.926 473.26 251.786 473.38 247.986 473.38H246.586V472ZM246.586 465.02H254.566V466.4H248.226V472.74H246.586V465.02ZM248.526 479.8H260.606V481.16H248.526V479.8ZM248.526 475.26H250.186V480.42H248.526V475.26ZM268.984 464.86C271.604 464.86 273.484 467.32 273.484 471.16C273.484 475.02 271.604 477.48 268.984 477.48C266.344 477.48 264.484 475.02 264.484 471.16C264.484 467.32 266.344 464.86 268.984 464.86ZM268.984 466.36C267.244 466.36 266.064 468.24 266.064 471.16C266.064 474.1 267.244 476.02 268.984 476.02C270.724 476.02 271.904 474.1 271.904 471.16C271.904 468.24 270.724 466.36 268.984 466.36ZM277.404 463.46H279.044V481.58H277.404V463.46ZM272.944 470.36H278.124V471.72H272.944V470.36ZM282.563 471.02H298.903V472.38H282.563V471.02ZM284.723 468.22H296.963V469.56H284.723V468.22ZM284.723 464.06H296.763V465.42H286.363V469.3H284.723V464.06ZM284.523 473.94H296.803V478.2H286.203V480.48H284.563V476.96H295.163V475.24H284.523V473.94ZM284.563 480.04H297.343V481.36H284.563V480.04ZM314.081 463.46H315.741V481.58H314.081V463.46ZM306.201 464.86C308.881 464.86 310.801 467.32 310.801 471.16C310.801 475.02 308.881 477.48 306.201 477.48C303.541 477.48 301.621 475.02 301.621 471.16C301.621 467.32 303.541 464.86 306.201 464.86ZM306.201 466.36C304.441 466.36 303.201 468.24 303.201 471.16C303.201 474.1 304.441 476.02 306.201 476.02C307.981 476.02 309.201 474.1 309.201 471.16C309.201 468.24 307.981 466.36 306.201 466.36ZM94.14 489.48H95.8V498.84H94.14V489.48ZM84.12 499.76H95.82V504.1H85.78V506.58H84.16V502.86H94.18V501.06H84.12V499.76ZM84.16 506.04H96.42V507.36H84.16V506.04ZM85.7 490H87.08V491.38C87.08 494.72 85 497.56 81.94 498.68L81.12 497.36C83.84 496.4 85.7 494 85.7 491.38V490ZM86 490H87.36V491.38C87.36 493.88 89.26 496.14 91.94 497.02L91.12 498.32C88.08 497.28 86 494.62 86 491.38V490ZM104.158 491.04H105.518V494.28C105.518 498.44 103.278 502.3 100.318 503.8L99.2984 502.44C101.978 501.16 104.158 497.7 104.158 494.28V491.04ZM104.438 491.04H105.798V494.28C105.798 497.58 107.958 500.9 110.638 502.14L109.638 503.46C106.698 502.02 104.438 498.3 104.438 494.28V491.04ZM112.518 489.46H114.178V507.58H112.518V489.46ZM130.157 489.48H131.817V502.7H130.157V489.48ZM131.297 494.96H134.497V496.34H131.297V494.96ZM125.217 490.88H126.977C126.977 495.56 123.697 498.98 118.517 500.64L117.797 499.28C122.357 497.88 125.217 495.08 125.217 491.6V490.88ZM118.537 490.88H126.057V492.24H118.537V490.88ZM120.537 505.8H132.617V507.16H120.537V505.8ZM120.537 501.36H122.197V506.34H120.537V501.36ZM161.828 489.48H163.408V500.64H161.828V489.48ZM158.928 494.3H162.328V495.66H158.928V494.3ZM157.848 489.82H159.408V500H157.848V489.82ZM149.008 498.24H150.168C152.708 498.24 154.588 498.16 156.808 497.72L156.968 499.04C154.688 499.5 152.788 499.58 150.168 499.58H149.008V498.24ZM148.968 490.84H155.768V495.72H150.608V499.24H149.008V494.46H154.168V492.18H148.968V490.84ZM157.467 501C161.188 501 163.508 502.2 163.508 504.26C163.508 506.32 161.188 507.52 157.467 507.52C153.728 507.52 151.448 506.32 151.448 504.26C151.448 502.2 153.728 501 157.467 501ZM157.467 502.28C154.748 502.28 153.067 503.02 153.067 504.26C153.067 505.5 154.748 506.22 157.467 506.22C160.188 506.22 161.848 505.5 161.848 504.26C161.848 503.02 160.188 502.28 157.467 502.28ZM174.386 490.72H176.106C176.106 495.38 173.506 498.74 167.726 500.44L167.086 499.1C172.226 497.62 174.386 494.88 174.386 491.36V490.72ZM167.866 490.72H175.286V492.06H167.866V490.72ZM174.166 494.04V495.22L167.246 495.74L166.966 494.38L174.166 494.04ZM179.726 489.5H181.406V500.36H179.726V489.5ZM175.426 500.62C179.166 500.62 181.506 501.9 181.506 504.08C181.506 506.26 179.166 507.54 175.426 507.54C171.686 507.54 169.366 506.26 169.366 504.08C169.366 501.9 171.686 500.62 175.426 500.62ZM175.426 501.94C172.686 501.94 171.006 502.72 171.006 504.08C171.006 505.42 172.686 506.22 175.426 506.22C178.166 506.22 179.846 505.42 179.846 504.08C179.846 502.72 178.166 501.94 175.426 501.94ZM193.144 490.62C196.904 490.62 199.704 492.62 199.704 495.62C199.704 498.64 196.904 500.62 193.144 500.62C189.384 500.62 186.564 498.64 186.564 495.62C186.564 492.62 189.384 490.62 193.144 490.62ZM193.144 491.98C190.284 491.98 188.164 493.44 188.164 495.62C188.164 497.78 190.284 499.26 193.144 499.26C196.004 499.26 198.124 497.78 198.124 495.62C198.124 493.44 196.004 491.98 193.144 491.98ZM184.984 503.78H201.364V505.18H184.984V503.78ZM203.383 503.96H219.763V505.34H203.383V503.96ZM210.703 500.08H212.363V504.54H210.703V500.08ZM205.363 490.82H217.743V496.3H207.063V499.92H205.423V494.96H216.103V492.16H205.363V490.82ZM205.423 499.22H218.163V500.58H205.423V499.22ZM233.773 503.88H250.153V505.26H233.773V503.88ZM241.093 499.56H242.753V504.28H241.093V499.56ZM235.693 490.76H237.333V493.98H246.553V490.76H248.193V500H235.693V490.76ZM237.333 495.32V498.64H246.553V495.32H237.333ZM260.312 493.5H265.772V494.88H260.312V493.5ZM260.312 499.22H265.772V500.6H260.312V499.22ZM256.992 490.86C259.612 490.86 261.492 493.32 261.492 497.16C261.492 501.02 259.612 503.48 256.992 503.48C254.352 503.48 252.492 501.02 252.492 497.16C252.492 493.32 254.352 490.86 256.992 490.86ZM256.992 492.36C255.252 492.36 254.052 494.24 254.052 497.16C254.052 500.1 255.252 502.02 256.992 502.02C258.732 502.02 259.932 500.1 259.932 497.16C259.932 494.24 258.732 492.36 256.992 492.36ZM265.412 489.46H267.052V507.58H265.412V489.46ZM274.57 498.78H276.21V504.2H274.57V498.78ZM281.25 498.78H282.91V504.2H281.25V498.78ZM270.57 503.88H286.95V505.26H270.57V503.88ZM278.73 490.62C282.55 490.62 285.29 492.44 285.29 495.28C285.29 498.1 282.55 499.92 278.73 499.92C274.89 499.92 272.15 498.1 272.15 495.28C272.15 492.44 274.89 490.62 278.73 490.62ZM278.73 491.94C275.83 491.94 273.75 493.26 273.75 495.28C273.75 497.28 275.83 498.6 278.73 498.6C281.63 498.6 283.69 497.28 283.69 495.28C283.69 493.26 281.63 491.94 278.73 491.94ZM293.969 506.18C293.422 506.18 293.035 506.067 292.809 505.84C292.595 505.613 292.489 505.327 292.489 504.98V504.62C292.489 504.273 292.595 503.987 292.809 503.76C293.035 503.533 293.422 503.42 293.969 503.42C294.515 503.42 294.895 503.533 295.109 503.76C295.335 503.987 295.449 504.273 295.449 504.62V504.98C295.449 505.327 295.335 505.613 295.109 505.84C294.895 506.067 294.515 506.18 293.969 506.18Z" fill="black"/>
<rect y="556" width="60" height="60" rx="30" fill="white"/>
<path d="M16 574H44V596H48V572.5C48 571.121 46.8787 570 45.5 570H14.5C13.1213 570 12 571.121 12 572.5V596H16V574ZM49 598H40V594H28V598H11C10.4475 598 10 598.447 10 599V601C10 601.553 10.4475 602 11 602H49C49.5525 602 50 601.553 50 601V599C50 598.447 49.5525 598 49 598Z" fill="#BF30E2"/>
<path d="M85.18 570.66H86.88V577.56H85.18V570.66ZM91.4 570.66H93.1V577.56H91.4V570.66ZM80.98 569.76H97.38V571.14H80.98V569.76ZM89.14 560.2C92.92 560.2 95.46 561.72 95.46 564.14C95.46 566.54 92.92 568.08 89.14 568.08C85.38 568.08 82.82 566.54 82.82 564.14C82.82 561.72 85.38 560.2 89.14 560.2ZM89.14 561.54C86.38 561.54 84.5 562.56 84.5 564.14C84.5 565.72 86.38 566.74 89.14 566.74C91.9 566.74 93.76 565.72 93.76 564.14C93.76 562.56 91.9 561.54 89.14 561.54ZM112.618 559.46H114.258V577.58H112.618V559.46ZM108.718 566.06H113.098V567.42H108.718V566.06ZM103.978 562.06H105.318V564.76C105.318 568.66 103.078 572.52 100.218 574L99.2384 572.68C101.838 571.4 103.978 567.98 103.978 564.76V562.06ZM104.318 562.06H105.638V564.76C105.638 567.78 107.738 571.08 110.358 572.32L109.378 573.62C106.518 572.2 104.318 568.48 104.318 564.76V562.06ZM99.8984 561.32H109.738V562.7H99.8984V561.32ZM117.797 567.02H134.137V568.38H117.797V567.02ZM119.957 564.22H132.197V565.56H119.957V564.22ZM119.957 560.06H131.997V561.42H121.597V565.3H119.957V560.06ZM119.757 569.94H132.037V574.2H121.437V576.48H119.797V572.96H130.397V571.24H119.757V569.94ZM119.797 576.04H132.577V577.36H119.797V576.04ZM149.355 559.48H150.995V577.56H149.355V559.48ZM140.215 561.42H141.755C141.755 565.74 140.735 570 137.495 573.46L136.175 572.48C139.115 569.44 140.215 565.68 140.215 561.6V561.42ZM136.835 561.42H140.835V562.8H136.835V561.42ZM145.255 561.42H146.795C146.795 565.74 146.115 570.76 142.855 574.66L141.475 573.76C144.495 570.22 145.255 565.74 145.255 561.58V561.42ZM142.355 561.42H145.835V562.8H142.355V561.42ZM167.754 559.46H169.414V577.58H167.754V559.46ZM155.634 571.84H157.134C160.154 571.84 162.854 571.72 166.054 571.2L166.234 572.56C162.954 573.1 160.234 573.22 157.134 573.22H155.634V571.84ZM155.594 561.16H163.954V567.62H157.294V572.36H155.634V566.26H162.274V562.52H155.594V561.16ZM189.444 562.06H190.764V565C190.764 568.76 188.464 572.64 185.644 574.08L184.684 572.76C187.264 571.5 189.444 568.06 189.444 565V562.06ZM189.744 562.06H191.064V565C191.064 567.86 193.104 571.08 195.724 572.32L194.784 573.64C191.924 572.22 189.744 568.58 189.744 565V562.06ZM185.324 561.32H195.064V562.72H185.324V561.32ZM197.204 559.48H198.884V577.56H197.204V559.48ZM198.484 566.78H201.844V568.18H198.484V566.78ZM207.563 570.66H209.263V577.56H207.563V570.66ZM213.783 570.66H215.483V577.56H213.783V570.66ZM203.363 569.76H219.763V571.14H203.363V569.76ZM211.523 560.2C215.303 560.2 217.843 561.72 217.843 564.14C217.843 566.54 215.303 568.08 211.523 568.08C207.763 568.08 205.203 566.54 205.203 564.14C205.203 561.72 207.763 560.2 211.523 560.2ZM211.523 561.54C208.763 561.54 206.883 562.56 206.883 564.14C206.883 565.72 208.763 566.74 211.523 566.74C214.283 566.74 216.143 565.72 216.143 564.14C216.143 562.56 214.283 561.54 211.523 561.54ZM221.761 568.72H238.161V570.08H221.761V568.72ZM229.121 566.54H230.781V569.4H229.121V566.54ZM223.961 570.98H225.601V572.72H234.421V570.98H236.061V577.32H223.961V570.98ZM225.601 574.02V576H234.421V574.02H225.601ZM223.841 559.86H236.041V564.02H225.521V566.4H223.881V562.78H234.421V561.14H223.841V559.86ZM223.881 565.72H236.441V567.02H223.881V565.72ZM253.94 559.48H255.54V577.56H253.94V559.48ZM246.1 566.86H250.66V568.2H246.1V566.86ZM250.18 559.94H251.74V576.64H250.18V559.94ZM246.32 561.76H247.92C247.92 566.5 246.02 570.76 241.14 573.66L240.16 572.48C244.42 569.92 246.32 566.32 246.32 562.06V561.76ZM240.96 561.76H246.94V563.12H240.96V561.76ZM270.57 573.84H286.95V575.22H270.57V573.84ZM277.85 569.46H279.49V574.3H277.85V569.46ZM277.81 560.68H279.25V562.08C279.25 565.94 275.55 568.92 271.91 569.68L271.21 568.3C274.39 567.72 277.81 565.06 277.81 562.08V560.68ZM278.11 560.68H279.55V562.08C279.55 565.08 282.99 567.72 286.17 568.3L285.45 569.68C281.81 568.92 278.11 565.94 278.11 562.08V560.68ZM288.949 569.06H305.289V570.4H288.949V569.06ZM296.289 566.72H297.929V569.62H296.289V566.72ZM291.109 565.98H303.369V567.28H291.109V565.98ZM291.109 560H303.289V561.3H292.749V566.68H291.109V560ZM292.269 562.96H302.809V564.24H292.269V562.96ZM297.109 571.74C301.049 571.74 303.309 572.74 303.309 574.64C303.309 576.52 301.049 577.52 297.109 577.52C293.169 577.52 290.909 576.52 290.909 574.64C290.909 572.74 293.169 571.74 297.109 571.74ZM297.109 573C294.209 573 292.589 573.58 292.589 574.64C292.589 575.72 294.209 576.28 297.109 576.28C300.009 576.28 301.629 575.72 301.629 574.64C301.629 573.58 300.009 573 297.109 573ZM319.727 559.42H321.387V569.4H319.727V559.42ZM320.687 563.76H324.067V565.16H320.687V563.76ZM309.907 570.32H321.387V574.36H311.587V576.56H309.947V573.16H319.767V571.58H309.907V570.32ZM309.947 576.08H322.047V577.36H309.947V576.08ZM307.407 561.1H318.087V562.4H307.407V561.1ZM312.747 563.2C315.347 563.2 317.067 564.34 317.067 566.18C317.067 568 315.347 569.12 312.747 569.12C310.107 569.12 308.407 568 308.407 566.18C308.407 564.34 310.107 563.2 312.747 563.2ZM312.747 564.42C311.067 564.42 309.987 565.1 309.987 566.18C309.987 567.24 311.067 567.92 312.747 567.92C314.407 567.92 315.487 567.24 315.487 566.18C315.487 565.1 314.407 564.42 312.747 564.42ZM311.907 559.28H313.567V562H311.907V559.28ZM345.058 560.12H346.518V561.12C346.518 564.58 342.998 567.06 339.238 567.7L338.578 566.36C341.878 565.86 345.058 563.7 345.058 561.12V560.12ZM345.358 560.12H346.798V561.12C346.798 563.64 350.018 565.86 353.278 566.36L352.618 567.7C348.898 567.06 345.358 564.54 345.358 561.12V560.12ZM345.058 570.68H346.698V577.56H345.058V570.68ZM337.758 569.66H354.098V571.04H337.758V569.66ZM372.648 570.6H373.928V571.58C373.928 573.94 372.448 576.32 369.848 577.32L369.008 576.08C371.288 575.26 372.648 573.32 372.648 571.58V570.6ZM373.008 570.6H374.248V571.58C374.248 573.4 375.328 575.34 377.488 576.22L376.788 577.48C374.188 576.46 373.008 573.98 373.008 571.58V570.6ZM379.328 570.6H380.568V571.58C380.568 573.7 379.368 576.38 376.788 577.48L376.088 576.22C378.228 575.24 379.328 573.14 379.328 571.58V570.6ZM379.668 570.6H380.948V571.58C380.948 573.44 382.288 575.3 384.588 576.08L383.748 577.32C381.108 576.36 379.668 574.08 379.668 571.58V570.6ZM381.288 559.5H382.968V569.82H381.288V559.5ZM373.268 560.54C376.008 560.54 377.968 562.26 377.968 564.76C377.968 567.26 376.008 568.96 373.268 568.96C370.528 568.96 368.548 567.26 368.548 564.76C368.548 562.26 370.528 560.54 373.268 560.54ZM373.268 561.92C371.468 561.92 370.168 563.08 370.168 564.76C370.168 566.44 371.468 567.58 373.268 567.58C375.068 567.58 376.368 566.44 376.368 564.76C376.368 563.08 375.068 561.92 373.268 561.92ZM388.747 564.9H401.027V566.26H388.747V564.9ZM386.527 568.68H402.927V570.04H386.527V568.68ZM388.747 560.14H390.387V565.58H388.747V560.14ZM388.627 575.76H401.127V577.12H388.627V575.76ZM388.627 571.84H390.267V576.12H388.627V571.84ZM94.76 595.48H96.36V613.56H94.76V595.48ZM86.92 602.86H91.48V604.2H86.92V602.86ZM91 595.94H92.56V612.64H91V595.94ZM87.14 597.76H88.74C88.74 602.5 86.84 606.76 81.96 609.66L80.98 608.48C85.24 605.92 87.14 602.32 87.14 598.06V597.76ZM81.78 597.76H87.76V599.12H81.78V597.76ZM104.158 597.04H105.518V600.28C105.518 604.44 103.278 608.3 100.318 609.8L99.2984 608.44C101.978 607.16 104.158 603.7 104.158 600.28V597.04ZM104.438 597.04H105.798V600.28C105.798 603.58 107.958 606.9 110.638 608.14L109.638 609.46C106.698 608.02 104.438 604.3 104.438 600.28V597.04ZM112.518 595.46H114.178V613.58H112.518V595.46ZM118.337 597.16H127.997V598.52H118.337V597.16ZM118.037 606.12L117.837 604.72C120.997 604.7 125.297 604.66 128.837 604.22L128.957 605.46C125.357 606.02 121.117 606.12 118.037 606.12ZM120.117 598.18H121.717V605H120.117V598.18ZM124.597 598.18H126.197V605H124.597V598.18ZM130.157 595.5H131.817V608.82H130.157V595.5ZM131.297 600.98H134.497V602.38H131.297V600.98ZM120.557 611.8H132.637V613.16H120.557V611.8ZM120.557 607.54H122.217V612.16H120.557V607.54ZM161.348 595.48H163.008V613.56H161.348V595.48ZM156.048 597.42H157.688C157.688 602.66 155.328 607.24 149.288 610.2L148.408 608.86C153.628 606.34 156.048 602.5 156.048 597.7V597.42ZM149.228 597.42H156.768V598.78H149.228V597.42ZM168.806 600.5H181.066V601.86H168.806V600.5ZM168.806 595.84H170.446V601.1H168.806V595.84ZM166.586 603.96H182.926V605.3H166.586V603.96ZM174.726 606.92C178.586 606.92 180.926 608.1 180.926 610.22C180.926 612.3 178.586 613.5 174.726 613.5C170.866 613.5 168.526 612.3 168.526 610.22C168.526 608.1 170.866 606.92 174.726 606.92ZM174.726 608.22C171.906 608.22 170.206 608.94 170.206 610.22C170.206 611.46 171.906 612.18 174.726 612.18C177.566 612.18 179.246 611.46 179.246 610.22C179.246 608.94 177.566 608.22 174.726 608.22ZM198.104 595.46H199.764V613.58H198.104V595.46ZM190.224 596.86C192.904 596.86 194.824 599.32 194.824 603.16C194.824 607.02 192.904 609.48 190.224 609.48C187.564 609.48 185.644 607.02 185.644 603.16C185.644 599.32 187.564 596.86 190.224 596.86ZM190.224 598.36C188.464 598.36 187.224 600.24 187.224 603.16C187.224 606.1 188.464 608.02 190.224 608.02C192.004 608.02 193.224 606.1 193.224 603.16C193.224 600.24 192.004 598.36 190.224 598.36ZM219.875 606.6H221.155V607.58C221.155 609.94 219.675 612.32 217.075 613.32L216.235 612.08C218.515 611.26 219.875 609.32 219.875 607.58V606.6ZM220.235 606.6H221.475V607.58C221.475 609.4 222.555 611.34 224.715 612.22L224.015 613.48C221.415 612.46 220.235 609.98 220.235 607.58V606.6ZM226.555 606.6H227.795V607.58C227.795 609.7 226.595 612.38 224.015 613.48L223.315 612.22C225.455 611.24 226.555 609.14 226.555 607.58V606.6ZM226.895 606.6H228.175V607.58C228.175 609.44 229.515 611.3 231.815 612.08L230.975 613.32C228.335 612.36 226.895 610.08 226.895 607.58V606.6ZM228.515 595.5H230.195V605.82H228.515V595.5ZM220.495 596.54C223.235 596.54 225.195 598.26 225.195 600.76C225.195 603.26 223.235 604.96 220.495 604.96C217.755 604.96 215.775 603.26 215.775 600.76C215.775 598.26 217.755 596.54 220.495 596.54ZM220.495 597.92C218.695 597.92 217.395 599.08 217.395 600.76C217.395 602.44 218.695 603.58 220.495 603.58C222.295 603.58 223.595 602.44 223.595 600.76C223.595 599.08 222.295 597.92 220.495 597.92ZM238.593 596.86C241.213 596.86 243.093 599.32 243.093 603.16C243.093 607.02 241.213 609.48 238.593 609.48C235.953 609.48 234.093 607.02 234.093 603.16C234.093 599.32 235.953 596.86 238.593 596.86ZM238.593 598.36C236.853 598.36 235.673 600.24 235.673 603.16C235.673 606.1 236.853 608.02 238.593 608.02C240.333 608.02 241.513 606.1 241.513 603.16C241.513 600.24 240.333 598.36 238.593 598.36ZM247.013 595.46H248.653V613.58H247.013V595.46ZM242.553 602.36H247.733V603.72H242.553V602.36ZM256.172 604.78H257.812V610.2H256.172V604.78ZM262.852 604.78H264.512V610.2H262.852V604.78ZM252.172 609.88H268.552V611.26H252.172V609.88ZM260.332 596.62C264.152 596.62 266.892 598.44 266.892 601.28C266.892 604.1 264.152 605.92 260.332 605.92C256.492 605.92 253.752 604.1 253.752 601.28C253.752 598.44 256.492 596.62 260.332 596.62ZM260.332 597.94C257.432 597.94 255.352 599.26 255.352 601.28C255.352 603.28 257.432 604.6 260.332 604.6C263.232 604.6 265.292 603.28 265.292 601.28C265.292 599.26 263.232 597.94 260.332 597.94ZM275.57 612.18C275.024 612.18 274.637 612.067 274.41 611.84C274.197 611.613 274.09 611.327 274.09 610.98V610.62C274.09 610.273 274.197 609.987 274.41 609.76C274.637 609.533 275.024 609.42 275.57 609.42C276.117 609.42 276.497 609.533 276.71 609.76C276.937 609.987 277.05 610.273 277.05 610.62V610.98C277.05 611.327 276.937 611.613 276.71 611.84C276.497 612.067 276.117 612.18 275.57 612.18Z" fill="black"/>
</svg>
