<svg width="30" height="30" viewBox="0 0 30 30" fill="none" xmlns="http://www.w3.org/2000/svg">
<path d="M19.5 18.75H21.75C22.125 18.75 22.5 18.375 22.5 18V10.125C22.5 9.75 22.125 9.375 21.75 9.375H19.5C19.125 9.375 18.75 9.75 18.75 10.125V18C18.75 18.375 19.125 18.75 19.5 18.75ZM25.125 18.75H27.375C27.75 18.75 28.125 18.375 28.125 18V4.5C28.125 4.125 27.75 3.75 27.375 3.75H25.125C24.75 3.75 24.375 4.125 24.375 4.5V18C24.375 18.375 24.75 18.75 25.125 18.75ZM8.25 18.75H10.5C10.875 18.75 11.25 18.375 11.25 18V13.875C11.25 13.5 10.875 13.125 10.5 13.125H8.25C7.875 13.125 7.5 13.5 7.5 13.875V18C7.5 18.375 7.875 18.75 8.25 18.75ZM13.875 18.75H16.125C16.5 18.75 16.875 18.375 16.875 18V6.375C16.875 6 16.5 5.625 16.125 5.625H13.875C13.5 5.625 13.125 6 13.125 6.375V18C13.125 18.375 13.5 18.75 13.875 18.75ZM29.0625 22.5H3.75V4.6875C3.75 4.16953 3.33047 3.75 2.8125 3.75H0.9375C0.419531 3.75 0 4.16953 0 4.6875V24.375C0 25.4104 0.839648 26.25 1.875 26.25H29.0625C29.5805 26.25 30 25.8305 30 25.3125V23.4375C30 22.9195 29.5805 22.5 29.0625 22.5Z" fill="#D9D9D9"/>
</svg>
