<svg width="20" height="21" viewBox="0 0 20 21" fill="none" xmlns="http://www.w3.org/2000/svg">
<g clip-path="url(#clip0_62_1435)">
<path d="M19.4493 6.05078L17.6485 7.85156C17.4649 8.03516 17.168 8.03516 16.9844 7.85156L12.6485 3.51562C12.4649 3.33203 12.4649 3.03516 12.6485 2.85156L14.4493 1.05078C15.1797 0.320312 16.3672 0.320312 17.1016 1.05078L19.4493 3.39844C20.1836 4.12891 20.1836 5.31641 19.4493 6.05078ZM11.1016 4.39844L0.843801 14.6562L0.015676 19.4023C-0.0976053 20.043 0.460989 20.5977 1.10161 20.4883L5.84771 19.6562L16.1055 9.39844C16.2891 9.21484 16.2891 8.91797 16.1055 8.73438L11.7696 4.39844C11.5821 4.21484 11.2852 4.21484 11.1016 4.39844ZM4.84771 13.7773C4.63286 13.5625 4.63286 13.2187 4.84771 13.0039L10.8633 6.98828C11.0782 6.77344 11.4219 6.77344 11.6368 6.98828C11.8516 7.20313 11.8516 7.54687 11.6368 7.76172L5.62114 13.7773C5.4063 13.9922 5.06255 13.9922 4.84771 13.7773ZM3.43755 17.0625H5.31255V18.4805L2.79302 18.9219L1.57818 17.707L2.01958 15.1875H3.43755V17.0625Z" fill="#BF30E2"/>
</g>
<defs>
<clipPath id="clip0_62_1435">
<rect width="20" height="20" fill="white" transform="translate(0 0.5)"/>
</clipPath>
</defs>
</svg>
