<svg width="25" height="21" viewBox="0 0 25 21" fill="none" xmlns="http://www.w3.org/2000/svg">
<path d="M18.0556 7.72228C18.0556 3.88547 14.0148 0.777832 9.02778 0.777832C4.0408 0.777832 0 3.88547 0 7.72228C0 9.21099 0.611979 10.5825 1.64931 11.7153C1.06771 13.0261 0.108507 14.0678 0.0954861 14.0808C0 14.1806 -0.0260417 14.3282 0.0303819 14.4584C0.0868055 14.5886 0.208333 14.6667 0.347222 14.6667C1.93576 14.6667 3.25087 14.1329 4.19705 13.5816C5.59462 14.2631 7.24826 14.6667 9.02778 14.6667C14.0148 14.6667 18.0556 11.5591 18.0556 7.72228ZM23.3507 17.2709C24.388 16.1424 25 14.7665 25 13.2778C25 10.3742 22.678 7.88721 19.388 6.84988C19.4271 7.13634 19.4444 7.42714 19.4444 7.72228C19.4444 12.3186 14.77 16.0556 9.02778 16.0556C8.55903 16.0556 8.1033 16.0209 7.65191 15.9731C9.0191 18.4688 12.2309 20.2223 15.9722 20.2223C17.7517 20.2223 19.4054 19.823 20.803 19.1372C21.7491 19.6884 23.0642 20.2223 24.6528 20.2223C24.7917 20.2223 24.9175 20.1398 24.9696 20.0139C25.026 19.8881 25 19.7405 24.9045 19.6363C24.8915 19.6233 23.9323 18.586 23.3507 17.2709Z" fill="#BF30E2"/>
</svg>
