<svg width="25" height="26" viewBox="0 0 25 26" fill="none" xmlns="http://www.w3.org/2000/svg">
<path d="M15.7578 13L20.644 8.11377C21.2437 7.51416 21.2437 6.54199 20.644 5.94189L19.5581 4.85596C18.9585 4.25635 17.9863 4.25635 17.3862 4.85596L12.5 9.74219L7.61377 4.85596C7.01416 4.25635 6.04199 4.25635 5.44189 4.85596L4.35596 5.94189C3.75635 6.5415 3.75635 7.51367 4.35596 8.11377L9.24219 13L4.35596 17.8862C3.75635 18.4858 3.75635 19.458 4.35596 20.0581L5.44189 21.144C6.0415 21.7437 7.01416 21.7437 7.61377 21.144L12.5 16.2578L17.3862 21.144C17.9858 21.7437 18.9585 21.7437 19.5581 21.144L20.644 20.0581C21.2437 19.4585 21.2437 18.4863 20.644 17.8862L15.7578 13Z" fill="black"/>
</svg>
