<svg width="35" height="35" viewBox="0 0 35 35" fill="none" xmlns="http://www.w3.org/2000/svg">
<g clip-path="url(#clip0_24_19)">
<path d="M32.0833 3.88889H2.91667C1.30642 3.88889 0 5.19531 0 6.80556V28.1944C0 29.8047 1.30642 31.1111 2.91667 31.1111H32.0833C33.6936 31.1111 35 29.8047 35 28.1944V6.80556C35 5.19531 33.6936 3.88889 32.0833 3.88889ZM10.6944 9.72222C12.8394 9.72222 14.5833 11.4661 14.5833 13.6111C14.5833 15.7561 12.8394 17.5 10.6944 17.5C8.54948 17.5 6.80556 15.7561 6.80556 13.6111C6.80556 11.4661 8.54948 9.72222 10.6944 9.72222ZM17.5 24.1111C17.5 24.7552 16.8924 25.2778 16.1389 25.2778H5.25C4.49653 25.2778 3.88889 24.7552 3.88889 24.1111V22.9444C3.88889 21.0122 5.71788 19.4444 7.97222 19.4444H8.27604C9.02344 19.7543 9.83767 19.9306 10.6944 19.9306C11.5512 19.9306 12.3715 19.7543 13.1128 19.4444H13.4167C15.671 19.4444 17.5 21.0122 17.5 22.9444V24.1111ZM31.1111 20.9028C31.1111 21.1701 30.8924 21.3889 30.625 21.3889H21.875C21.6076 21.3889 21.3889 21.1701 21.3889 20.9028V19.9306C21.3889 19.6632 21.6076 19.4444 21.875 19.4444H30.625C30.8924 19.4444 31.1111 19.6632 31.1111 19.9306V20.9028ZM31.1111 17.0139C31.1111 17.2812 30.8924 17.5 30.625 17.5H21.875C21.6076 17.5 21.3889 17.2812 21.3889 17.0139V16.0417C21.3889 15.7743 21.6076 15.5556 21.875 15.5556H30.625C30.8924 15.5556 31.1111 15.7743 31.1111 16.0417V17.0139ZM31.1111 13.125C31.1111 13.3924 30.8924 13.6111 30.625 13.6111H21.875C21.6076 13.6111 21.3889 13.3924 21.3889 13.125V12.1528C21.3889 11.8854 21.6076 11.6667 21.875 11.6667H30.625C30.8924 11.6667 31.1111 11.8854 31.1111 12.1528V13.125Z" fill="#BF30E2"/>
</g>
<defs>
<clipPath id="clip0_24_19">
<rect width="35" height="35" fill="white"/>
</clipPath>
</defs>
</svg>
