<svg width="25" height="25" viewBox="0 0 25 25" fill="none" xmlns="http://www.w3.org/2000/svg">
<path d="M21.1741 18.8723L17.8635 15.5622C17.7141 15.4128 17.5115 15.3298 17.299 15.3298H16.7577C17.6742 14.1579 18.2188 12.6838 18.2188 11.0803C18.2188 7.26559 15.1273 4.17468 11.312 4.17468C7.49671 4.17468 4.40527 7.26559 4.40527 11.0803C4.40527 14.8949 7.49671 17.9858 11.312 17.9858C12.9159 17.9858 14.3902 17.4414 15.5623 16.525V17.0662C15.5623 17.2787 15.6454 17.4812 15.7948 17.6306L19.1054 20.9406C19.4175 21.2527 19.9222 21.2527 20.231 20.9406L21.1708 20.0011C21.4829 19.689 21.4829 19.1844 21.1741 18.8723ZM11.312 15.3298C8.9644 15.3298 7.06172 13.4308 7.06172 11.0803C7.06172 8.73303 8.96108 6.83067 11.312 6.83067C13.6597 6.83067 15.5623 8.72971 15.5623 11.0803C15.5623 13.4275 13.663 15.3298 11.312 15.3298Z" fill="#BF30E2"/>
</svg>
