<svg width="15" height="15" viewBox="0 0 15 15" fill="none" xmlns="http://www.w3.org/2000/svg">
<path d="M9.45469 7.5L12.3864 4.56826C12.7462 4.2085 12.7462 3.6252 12.3864 3.26514L11.7349 2.61357C11.3751 2.25381 10.7918 2.25381 10.4317 2.61357L7.5 5.54531L4.56826 2.61357C4.2085 2.25381 3.6252 2.25381 3.26514 2.61357L2.61357 3.26514C2.25381 3.6249 2.25381 4.2082 2.61357 4.56826L5.54531 7.5L2.61357 10.4317C2.25381 10.7915 2.25381 11.3748 2.61357 11.7349L3.26514 12.3864C3.6249 12.7462 4.2085 12.7462 4.56826 12.3864L7.5 9.45469L10.4317 12.3864C10.7915 12.7462 11.3751 12.7462 11.7349 12.3864L12.3864 11.7349C12.7462 11.3751 12.7462 10.7918 12.3864 10.4317L9.45469 7.5Z" fill="white"/>
</svg>
