<svg width="16" height="16" viewBox="0 0 16 16" fill="none" xmlns="http://www.w3.org/2000/svg">
<path d="M1.70654 9.2482L0.927556 8.46138C0.597716 8.12822 0.597716 7.5895 0.927556 7.25988L7.74541 0.369865C8.07525 0.0367053 8.60861 0.0367053 8.93494 0.369865L15.7528 7.25634C16.0826 7.5895 16.0826 8.12822 15.7528 8.45784L14.9738 9.24466C14.6405 9.58136 14.0966 9.57427 13.7702 9.23048L9.7455 4.96321V15.1494C9.7455 15.6208 9.37005 16 8.90336 16H7.7805C7.31381 16 6.93836 15.6208 6.93836 15.1494V4.96321L2.9101 9.23403C2.58377 9.58136 2.03989 9.58845 1.70654 9.2482Z" fill="white"/>
</svg>
