<svg width="26" height="26" viewBox="0 0 26 26" fill="none" xmlns="http://www.w3.org/2000/svg">
<rect y="0.119995" width="25.32" height="25.88" rx="12.66" fill="#BF30E2"/>
<path d="M6.02636 14.2482L5.24738 13.4614C4.91754 13.1282 4.91754 12.5895 5.24738 12.2599L12.0652 5.36986C12.3951 5.03671 12.9284 5.03671 13.2548 5.36986L20.0726 12.2563C20.4025 12.5895 20.4025 13.1282 20.0726 13.4578L19.2936 14.2447C18.9603 14.5814 18.4164 14.5743 18.0901 14.2305L14.0653 9.96321V20.1494C14.0653 20.6208 13.6899 21 13.2232 21H12.1003C11.6336 21 11.2582 20.6208 11.2582 20.1494V9.96321L7.22993 14.234C6.9036 14.5814 6.35971 14.5885 6.02636 14.2482Z" fill="white"/>
</svg>
