<svg width="35" height="36" viewBox="0 0 35 36" fill="none" xmlns="http://www.w3.org/2000/svg">
<rect x="0.5" y="1" width="34" height="34" rx="9.5" fill="white"/>
<path d="M17.5 19.5625C21.3818 19.5625 24.5312 16.4131 24.5312 12.5312C24.5312 8.64941 21.3818 5.5 17.5 5.5C13.6182 5.5 10.4688 8.64941 10.4688 12.5312C10.4688 16.4131 13.6182 19.5625 17.5 19.5625ZM23.75 21.125H21.0596C19.9756 21.623 18.7695 21.9062 17.5 21.9062C16.2305 21.9062 15.0293 21.623 13.9404 21.125H11.25C7.79785 21.125 5 23.9229 5 27.375V28.1562C5 29.4502 6.0498 30.5 7.34375 30.5H27.6562C28.9502 30.5 30 29.4502 30 28.1562V27.375C30 23.9229 27.2021 21.125 23.75 21.125Z" fill="#D9D9D9"/>
<rect x="0.5" y="1" width="34" height="34" rx="9.5" stroke="#D9D9D9"/>
</svg>
